# xmcd
#
# Track frame offsets: 
#        150
#        18975
#        35010
#        47807
#        72972
#        87765
#        106330
#        132152
#        152630
#        183940
#        196087
#        214020
#        231355
#        250342
#        271327
#        281397
#        304592
#
# Disc length: 4227 seconds
#
# Revision: 2
# Processed by: cddbd v1.5.2PL0 Copyright (c) Steve Scherf et al.
# Submitted via: ExactAudioCopy v0.99pb5
#
DISCID=e5108111
DTITLE=James Taylor - (Best Live)
DYEAR=1993
DGENRE=blues
TTITLE0=Sweet Baby James
TTITLE1=Handy Man
TTITLE2=Your Smiling Face
TTITLE3=Steamroller Blues
TTITLE4=Mexico
TTITLE5=Walking Man
TTITLE6=Country Road
TTITLE7=Fire and Rain
TTITLE8=How Sweet It Is
TTITLE9=Riding on a Railroad
TTITLE10=Something In The Way She Moves
TTITLE11=Sun On The Moon
TTITLE12=Up On The Roof
TTITLE13=Copperline
TTITLE14=Slap Leather
TTITLE15=You've Got A Friend
TTITLE16=That Lonesome Road
EXTD=COLUMBIA\n1993 SONY Music\nTaken from the Columbia Release James 
EXTD=Taylor (Live]\n\nProduced by Don Grolnick and George Massenburg\n
EXTT0=
EXTT1=
EXTT2=
EXTT3=
EXTT4=
EXTT5=
EXTT6=
EXTT7=
EXTT8=
EXTT9=
EXTT10=
EXTT11=
EXTT12=
EXTT13=
EXTT14=
EXTT15=
EXTT16=
PLAYORDER=
